<svg xmlns="http://www.w3.org/2000/svg" width="48" height="48" viewBox="0 0 48 48" shape-rendering="crispEdges">
  <!-- pixel knife 3x, tip upper-left; hotspot 3 3 -->
  <rect x="3" y="0" width="3" height="3" fill="#000"/>
  <rect x="6" y="3" width="3" height="3" fill="#000"/>
  <rect x="3" y="3" width="3" height="3" fill="#e0e0e0"/>
  <rect x="6" y="6" width="3" height="3" fill="#000"/>
  <rect x="9" y="6" width="3" height="3" fill="#000"/>
  <rect x="6" y="6" width="3" height="3" fill="#f0f0f0"/>
  <rect x="9" y="9" width="3" height="3" fill="#000"/>
  <rect x="12" y="9" width="3" height="3" fill="#000"/>
  <rect x="9" y="9" width="3" height="3" fill="#f0f0f0"/>
  <rect x="12" y="12" width="3" height="3" fill="#000"/>
  <rect x="15" y="12" width="3" height="3" fill="#000"/>
  <rect x="12" y="12" width="3" height="3" fill="#e8e8e8"/>
  <rect x="15" y="15" width="3" height="3" fill="#000"/>
  <rect x="18" y="15" width="3" height="3" fill="#000"/>
  <rect x="15" y="15" width="3" height="3" fill="#e0e0e0"/>
  <rect x="18" y="18" width="3" height="3" fill="#000"/>
  <rect x="21" y="18" width="3" height="3" fill="#000"/>
  <rect x="18" y="18" width="3" height="3" fill="#d8d8d8"/>
  <rect x="21" y="21" width="3" height="3" fill="#000"/>
  <rect x="24" y="21" width="3" height="3" fill="#5c3a1e"/>
  <rect x="21" y="21" width="3" height="3" fill="#c8c8c8"/>
  <rect x="24" y="24" width="3" height="3" fill="#000"/>
  <rect x="27" y="24" width="3" height="3" fill="#000"/>
  <rect x="24" y="24" width="3" height="3" fill="#6b4423"/>
  <rect x="27" y="27" width="3" height="3" fill="#000"/>
  <rect x="24" y="27" width="3" height="3" fill="#5c3a1e"/>
  <rect x="27" y="30" width="3" height="3" fill="#000"/>
  <rect x="24" y="30" width="3" height="3" fill="#4a2f18"/>
</svg>
